<svg width="26" height="26" viewBox="0 0 26 26" fill="none" xmlns="http://www.w3.org/2000/svg">
<path fill-rule="evenodd" clip-rule="evenodd" d="M10.7024 3.12323C11.2936 2.60984 12.0503 2.32715 12.8333 2.32715C13.6163 2.32715 14.373 2.60984 14.9642 3.12323L22.5476 9.70557C22.899 10.0107 23.1808 10.3879 23.3739 10.8114C23.5669 11.2349 23.6668 11.6949 23.6667 12.1604V20.5833C23.6667 21.4453 23.3243 22.2719 22.7148 22.8814C22.1053 23.4909 21.2786 23.8333 20.4167 23.8333H16.625C16.194 23.8333 15.7807 23.6621 15.476 23.3574C15.1712 23.0526 15 22.6393 15 22.2083V14.8276H10.6667V22.2083C10.6667 22.6393 10.4955 23.0526 10.1907 23.3574C9.88597 23.6621 9.47264 23.8333 9.04167 23.8333H5.25C4.38805 23.8333 3.5614 23.4909 2.9519 22.8814C2.34241 22.2719 2 21.4453 2 20.5833V12.1604C1.99987 11.6949 2.09972 11.2349 2.29279 10.8114C2.48586 10.3879 2.76764 10.0107 3.11908 9.70557L10.7024 3.12323ZM13.544 4.75907C13.3469 4.58774 13.0945 4.49339 12.8333 4.49339C12.5722 4.49339 12.3198 4.58774 12.1227 4.75907L4.53933 11.3425C4.4223 11.4442 4.32846 11.5699 4.26417 11.711C4.19988 11.8521 4.16663 12.0053 4.16667 12.1604V20.5833C4.16667 20.8706 4.2808 21.1462 4.48397 21.3493C4.68713 21.5525 4.96268 21.6666 5.25 21.6666H8.5V14.8276C8.5 14.2529 8.72827 13.7018 9.1346 13.2955C9.54093 12.8892 10.092 12.6609 10.6667 12.6609H15C15.5746 12.6609 16.1257 12.8892 16.5321 13.2955C16.9384 13.7018 17.1667 14.2529 17.1667 14.8276V21.6666H20.4167C20.704 21.6666 20.9795 21.5525 21.1827 21.3493C21.3859 21.1462 21.5 20.8706 21.5 20.5833V12.1604C21.4999 12.0053 21.4665 11.8519 21.402 11.7108C21.3375 11.5697 21.2435 11.4441 21.1262 11.3425L13.544 4.75907Z" fill="#FF6F0F"/>
</svg>
