<svg width="30" height="27" viewBox="0 0 30 27" fill="none" xmlns="http://www.w3.org/2000/svg">
<path d="M12.5 23.8077C17.4707 23.8077 21.5 19.9334 21.5 15.1538C21.5 10.3743 17.4707 6.5 12.5 6.5C7.5293 6.5 3.5 10.3743 3.5 15.1538C3.5 16.7297 3.9383 18.2087 4.7042 19.4808L3.95 23.375L8 22.6498C9.36767 23.4103 10.9201 23.8098 12.5 23.8077Z" stroke="#808080" stroke-width="2" stroke-linecap="round" stroke-linejoin="round"/>
<rect x="12.0601" width="17" height="18" rx="8.5" fill="#00A05B"/>
<path d="M14.728 13L14.7163 11.7227L17.7632 8.92188C18.5601 8.16016 18.9819 7.69141 18.9819 7.02344C18.9819 6.27344 18.4077 5.80469 17.6343 5.80469C16.8374 5.80469 16.3218 6.30859 16.3218 7.11719H14.646C14.6343 5.45312 15.8647 4.39844 17.6577 4.39844C19.4741 4.39844 20.6812 5.42969 20.6812 6.90625C20.6812 7.86719 20.2124 8.66406 18.4663 10.2461L17.1772 11.5V11.5469H20.7983V13H14.728ZM25.7085 4.51562V13H23.939V6.19141H23.8921L21.9468 7.41016V5.85156L24.0444 4.51562H25.7085Z" fill="white"/>
</svg>
