<svg width="24" height="24" viewBox="0 0 24 24" fill="none" xmlns="http://www.w3.org/2000/svg">
<path d="M5.54639 3.65039C5.37404 3.6504 5.20952 3.706 5.0835 3.80371C4.95805 3.90106 4.88038 4.03226 4.85889 4.1709L4.85303 4.25V19.751C4.8532 20.0399 5.09679 20.3006 5.4458 20.3438L5.55518 20.3506H18.4839L18.6108 20.3408C18.7358 20.3206 18.8522 20.2706 18.9468 20.1973C19.0722 20.0999 19.1499 19.9687 19.1714 19.8301L19.1772 19.751V4.25C19.1771 4.11058 19.1212 3.97248 19.0132 3.8623C18.9052 3.75222 18.7528 3.67757 18.5835 3.65625L18.4751 3.65039H5.54639ZM12.2944 12.8477C12.5424 12.8458 12.7848 12.9279 12.9712 13.0811C13.1583 13.235 13.2764 13.4509 13.2944 13.6855C13.3123 13.9203 13.2282 14.1496 13.0649 14.3262C12.902 14.5023 12.672 14.6128 12.4253 14.6406L12.4165 14.6416L12.3022 14.6475L12.2944 14.6484V14.6475H7.23389C6.98712 14.6474 6.74664 14.5645 6.56201 14.4111C6.3771 14.2575 6.26062 14.0434 6.24268 13.8105C6.22475 13.5773 6.30794 13.3491 6.46924 13.1729C6.62999 12.9973 6.85652 12.8854 7.10107 12.8555L7.10986 12.8545L7.2251 12.8477H12.2944ZM7.23389 9.85059H16.7964C17.0432 9.85065 17.2836 9.93356 17.4683 10.0869C17.6532 10.2406 17.7696 10.4546 17.7876 10.6875C17.8055 10.9208 17.7223 11.1489 17.561 11.3252C17.4003 11.5007 17.1738 11.6127 16.9292 11.6426L16.9204 11.6436L16.8052 11.6504H7.23389V11.6494C6.98584 11.6514 6.74358 11.5702 6.55713 11.417C6.36993 11.2631 6.25191 11.0472 6.23389 10.8125C6.21598 10.5777 6.30002 10.3485 6.46338 10.1719C6.62623 9.99584 6.85543 9.8853 7.10205 9.85742L7.11084 9.85645L7.22607 9.85059L7.23389 9.84961V9.85059ZM16.7964 6.85059C17.0431 6.85065 17.2836 6.9336 17.4683 7.08691C17.6533 7.24064 17.7697 7.45544 17.7876 7.68848C17.8054 7.92164 17.7223 8.14899 17.561 8.3252C17.4003 8.50089 17.1739 8.61265 16.9292 8.64258L16.9204 8.64355L16.8052 8.65039L16.7964 8.65137H7.23389C6.98711 8.6513 6.74664 8.56741 6.56201 8.41406C6.37711 8.26035 6.26057 8.04639 6.24268 7.81348C6.22476 7.58022 6.30794 7.35205 6.46924 7.17578C6.62999 7.00031 6.85656 6.88831 7.10107 6.8584H7.10889L7.22314 6.85059L7.23389 6.84961L16.7964 6.85059ZM21.1655 19.75C21.1655 20.3638 20.9033 20.9514 20.438 21.3945C19.9731 21.8372 19.3393 22.1034 18.6665 22.1445H18.6616L18.4878 22.1504H5.54639C4.87203 22.1505 4.22038 21.9225 3.72314 21.5098C3.22544 21.0967 2.91883 20.5273 2.87158 19.915L2.87061 19.9092L2.86572 19.7568L2.86475 19.752V4.25C2.86476 3.63623 3.12699 3.04858 3.59229 2.60547C4.05718 2.16279 4.69099 1.89656 5.36377 1.85547H5.36865L5.54248 1.84961H18.4839L18.7358 1.86035C19.319 1.90953 19.8721 2.12921 20.3071 2.49023C20.7426 2.85171 21.0322 3.33259 21.1294 3.85742L21.1587 4.08496L21.1597 4.09082L21.1646 4.24414L21.1655 4.24902V19.75Z" fill="#808080" stroke="#808080" stroke-width="0.3"/>
</svg>
