<svg width="16" height="16" viewBox="0 0 16 16" fill="none" xmlns="http://www.w3.org/2000/svg">
<path d="M11.75 0.5C12.7824 0.5 13.7089 1.05529 14.3945 1.98242C15.0817 2.91163 15.5 4.18544 15.5 5.51758C15.5 6.2355 15.3922 6.92406 15.2002 7.58105V7.58203C15.1124 7.88294 15.0071 8.17514 14.8877 8.45996C13.1352 10.5525 11.3422 12.3354 9.98145 13.5986C9.29537 14.2355 8.7202 14.7398 8.31738 15.084C8.19571 15.188 8.08849 15.2766 8 15.3506C7.91151 15.2766 7.80429 15.188 7.68262 15.084C7.2798 14.7398 6.70463 14.2355 6.01855 13.5986C4.65754 12.3352 2.86406 10.552 1.11133 8.45898C0.991915 8.17319 0.887558 7.88066 0.799805 7.58105C0.607842 6.92406 0.500025 6.2355 0.5 5.51758C0.5 4.18507 0.91846 2.91147 1.60547 1.98242C2.29105 1.05544 3.21758 0.5 4.25 0.5C5.69186 0.500081 6.78713 1.29243 7.50781 2.7959C7.55218 2.88846 7.62208 2.96669 7.70898 3.02148C7.79601 3.07631 7.89713 3.10547 8 3.10547C8.10287 3.10547 8.204 3.0763 8.29102 3.02148C8.37792 2.96668 8.44782 2.88846 8.49219 2.7959C9.21277 1.29182 10.3088 0.500081 11.75 0.5Z" fill="#FF6F0F" stroke="white"/>
</svg>
