<svg width="24" height="24" viewBox="0 0 24 24" fill="none" xmlns="http://www.w3.org/2000/svg">
<path fill-rule="evenodd" clip-rule="evenodd" d="M17.5211 10.8687C17.5211 11.7423 17.3491 12.6073 17.0147 13.4144C16.6804 14.2214 16.1904 14.9548 15.5727 15.5725C14.955 16.1902 14.2217 16.6802 13.4146 17.0145C12.6075 17.3488 11.7425 17.5209 10.8689 17.5209C9.99536 17.5209 9.13034 17.3488 8.32326 17.0145C7.51618 16.6802 6.78285 16.1902 6.16514 15.5725C5.54743 14.9548 5.05743 14.2214 4.72313 13.4144C4.38883 12.6073 4.21676 11.7423 4.21676 10.8687C4.21676 9.10443 4.91761 7.41242 6.16514 6.1649C7.41266 4.91737 9.10467 4.21652 10.8689 4.21652C12.6332 4.21652 14.3252 4.91737 15.5727 6.1649C16.8203 7.41242 17.5211 9.10443 17.5211 10.8687ZM16.3089 17.8757C14.5267 19.2593 12.2842 19.9117 10.0379 19.7C7.79154 19.4884 5.71032 18.4286 4.21787 16.7365C2.72543 15.0444 1.93396 12.847 2.0046 10.5919C2.07523 8.33673 3.00266 6.19326 4.59808 4.59784C6.1935 3.00242 8.33698 2.07499 10.5921 2.00435C12.8473 1.93371 15.0446 2.72518 16.7367 4.21763C18.4289 5.71007 19.4886 7.7913 19.7003 10.0376C19.9119 12.2839 19.2595 14.5265 17.8759 16.3087L22.0002 20.433C21.7098 20.7237 21.7098 20.7237 21.7098 20.7237C21.7098 20.7237 21.3223 21.1112 21.217 21.2164C21.1117 21.3217 20.7243 21.7092 20.7243 21.7092C20.7243 21.7092 20.7243 21.7092 20.4333 22L16.3089 17.8757Z" fill="#333333"/>
</svg>
