<svg width="24" height="24" viewBox="0 0 24 24" fill="none" xmlns="http://www.w3.org/2000/svg">
<path d="M4.46837 11.5401L12.0177 19.1241L19.567 11.5401C20.2345 10.8696 20.6094 9.96015 20.6094 9.0119C20.6094 8.06364 20.2345 7.15422 19.567 6.4837C19.2365 6.15169 18.8442 5.88833 18.4124 5.70865C17.9806 5.52897 17.5177 5.43649 17.0504 5.43649C16.1064 5.43649 15.2012 5.81318 14.5337 6.4837L12.0177 9.0113L9.50165 6.48489C8.83249 5.82337 7.93024 5.45427 6.99143 5.458C6.05261 5.46173 5.1533 5.83798 4.48937 6.5048C3.82545 7.17162 3.4507 8.07498 3.44677 9.0181C3.44284 9.96123 3.81003 10.8677 4.46837 11.5401ZM11.179 4.79744L12.0177 5.63998L12.8564 4.79744C13.4063 4.24017 14.0603 3.79749 14.781 3.49483C15.5016 3.19217 16.2747 3.03548 17.0557 3.03376C17.8368 3.03204 18.6106 3.18533 19.3325 3.48482C20.0545 3.78431 20.7105 4.2241 21.2628 4.77895C21.8151 5.3338 22.2529 5.99278 22.551 6.71806C22.8491 7.44334 23.0017 8.22062 23 9.0053C22.9983 9.78998 22.8423 10.5666 22.541 11.2905C22.2397 12.0145 21.7991 12.6716 21.2444 13.224L12.8576 21.6505C12.7474 21.7613 12.6166 21.8492 12.4725 21.9092C12.3285 21.9691 12.1742 22 12.0183 22C11.8624 22 11.708 21.9691 11.564 21.9092C11.42 21.8492 11.2892 21.7613 11.179 21.6505L2.79101 13.2252C2.22874 12.6745 1.7809 12.0172 1.47348 11.2913C1.16605 10.5655 1.00515 9.78551 1.00012 8.99669C0.995091 8.20786 1.14602 7.42589 1.44417 6.69613C1.74231 5.96636 2.18173 5.30334 2.73693 4.7455C3.29213 4.18767 3.95207 3.74614 4.67845 3.44653C5.40484 3.14691 6.18321 2.99517 6.96843 3.00012C7.75364 3.00506 8.53006 3.16658 9.25266 3.47532C9.97525 3.78406 10.6296 4.23386 11.1778 4.79864L11.179 4.79744Z" fill="#333333"/>
</svg>
