<svg width="18" height="22" viewBox="0 0 18 22" fill="none" xmlns="http://www.w3.org/2000/svg">
<path d="M13.666 13.282L13 12.686V7.5C13 6.43913 12.5786 5.42172 11.8284 4.67157C11.0783 3.92143 10.0609 3.5 9 3.5C7.93914 3.5 6.92172 3.92143 6.17158 4.67157C5.42143 5.42172 5 6.43913 5 7.5V12.686L4.334 13.282C3.36807 14.1449 2.6605 15.2589 2.29 16.5H15.71C15.3395 15.2589 14.6319 14.1449 13.666 13.282ZM12 18.5C12 19.2956 11.6839 20.0587 11.1213 20.6213C10.5587 21.1839 9.79565 21.5 9 21.5C8.20435 21.5 7.44129 21.1839 6.87868 20.6213C6.31607 20.0587 6 19.2956 6 18.5H4.25617e-06C-0.00122869 17.2336 0.265426 15.9812 0.782461 14.8251C1.2995 13.669 2.05522 12.6354 3 11.792V7.5C3 5.9087 3.63215 4.38258 4.75736 3.25736C5.88258 2.13214 7.4087 1.5 9 1.5C10.5913 1.5 12.1174 2.13214 13.2426 3.25736C14.3679 4.38258 15 5.9087 15 7.5V11.792C15.9448 12.6354 16.7005 13.669 17.2175 14.8251C17.7346 15.9812 18.0012 17.2336 18 18.5H12ZM9 19.5C9.26522 19.5 9.51957 19.3946 9.70711 19.2071C9.89465 19.0196 10 18.7652 10 18.5H8C8 18.7652 8.10536 19.0196 8.2929 19.2071C8.48043 19.3946 8.73479 19.5 9 19.5Z" fill="#333333"/>
</svg>
