<svg width="16" height="19" viewBox="0 0 16 19" fill="none" xmlns="http://www.w3.org/2000/svg">
<g clip-path="url(#clip0_380_985)">
<path fill-rule="evenodd" clip-rule="evenodd" d="M7.59119 18.4127L7.65341 18.4489L7.6783 18.4634C7.777 18.5177 7.88744 18.5461 7.99964 18.5461C8.11184 18.5461 8.22227 18.5177 8.32097 18.4634L8.34586 18.4498L8.40897 18.4127C8.4629 18.3807 8.53845 18.3346 8.63564 18.2743C8.82853 18.1539 9.10141 17.9757 9.42675 17.7414C10.2807 17.1273 11.0786 16.4363 11.8107 15.6767C13.5387 13.8762 15.3334 11.171 15.3334 7.69036C15.3334 5.71071 14.5608 3.81214 13.1855 2.41231C11.8103 1.01249 9.945 0.226074 8.00008 0.226074C6.05516 0.226074 4.1899 1.01249 2.81463 2.41231C1.43936 3.81214 0.666748 5.71071 0.666748 7.69036C0.666748 11.1701 2.4623 13.8762 4.18941 15.6767C4.92161 16.4363 5.71949 17.1273 6.57342 17.7414C6.90371 17.9789 7.24324 18.2029 7.59119 18.4127ZM8.00008 10.4046C8.70732 10.4046 9.3856 10.1187 9.8857 9.60965C10.3858 9.10062 10.6667 8.41023 10.6667 7.69036C10.6667 6.97049 10.3858 6.2801 9.8857 5.77107C9.3856 5.26204 8.70732 4.97607 8.00008 4.97607C7.29284 4.97607 6.61456 5.26204 6.11446 5.77107C5.61437 6.2801 5.33341 6.97049 5.33341 7.69036C5.33341 8.41023 5.61437 9.10062 6.11446 9.60965C6.61456 10.1187 7.29284 10.4046 8.00008 10.4046Z" fill="#333333"/>
</g>
<defs>
<clipPath id="clip0_380_985">
<rect width="16" height="19" fill="white"/>
</clipPath>
</defs>
</svg>
