<svg width="18" height="18" viewBox="0 0 18 18" fill="none" xmlns="http://www.w3.org/2000/svg">
<g clip-path="url(#clip0_380_940)">
<path d="M12.9375 9.39395C13.0419 9.39395 13.142 9.35246 13.2159 9.27862C13.2897 9.20478 13.3312 9.10462 13.3312 9.0002C13.3312 8.89577 13.2897 8.79561 13.2159 8.72177C13.142 8.64793 13.0419 8.60645 12.9375 8.60645C12.833 8.60645 12.7329 8.64793 12.659 8.72177C12.5852 8.79561 12.5437 8.89577 12.5437 9.0002C12.5437 9.10462 12.5852 9.20478 12.659 9.27862C12.7329 9.35246 12.833 9.39395 12.9375 9.39395ZM8.99995 9.39395C9.10438 9.39395 9.20453 9.35246 9.27837 9.27862C9.35222 9.20478 9.3937 9.10462 9.3937 9.0002C9.3937 8.89577 9.35222 8.79561 9.27837 8.72177C9.20453 8.64793 9.10438 8.60645 8.99995 8.60645C8.89552 8.60645 8.79537 8.64793 8.72153 8.72177C8.64769 8.79561 8.6062 8.89577 8.6062 9.0002C8.6062 9.10462 8.64769 9.20478 8.72153 9.27862C8.79537 9.35246 8.89552 9.39395 8.99995 9.39395ZM5.06245 9.39395C5.16688 9.39395 5.26703 9.35246 5.34087 9.27862C5.41472 9.20478 5.4562 9.10462 5.4562 9.0002C5.4562 8.89577 5.41472 8.79561 5.34087 8.72177C5.26703 8.64793 5.16688 8.60645 5.06245 8.60645C4.95802 8.60645 4.85787 8.64793 4.78403 8.72177C4.71019 8.79561 4.6687 8.89577 4.6687 9.0002C4.6687 9.10462 4.71019 9.20478 4.78403 9.27862C4.85787 9.35246 4.95802 9.39395 5.06245 9.39395Z" fill="#B3B3B3" stroke="#B3B3B3" stroke-linecap="round" stroke-linejoin="round"/>
<path d="M9 16.875C13.3494 16.875 16.875 13.3494 16.875 9C16.875 4.65064 13.3494 1.125 9 1.125C4.65064 1.125 1.125 4.65064 1.125 9C1.125 10.434 1.50851 11.7799 2.17868 12.9375L1.51875 16.4813L5.0625 15.8213C6.25921 16.5134 7.61758 16.8769 9 16.875Z" stroke="#B3B3B3" stroke-width="0.7" stroke-linecap="round" stroke-linejoin="round"/>
</g>
<defs>
<clipPath id="clip0_380_940">
<rect width="18" height="18" fill="white"/>
</clipPath>
</defs>
</svg>
