<svg width="18" height="18" viewBox="0 0 18 18" fill="none" xmlns="http://www.w3.org/2000/svg">
<path d="M9.00321 15.1443C14.3248 15.1443 18 10.8436 18 9.5C18 8.14968 14.3184 3.85571 9.00321 3.85571C3.75429 3.85539 0 8.14936 0 9.49968C0 10.8432 3.74754 15.1443 9.00321 15.1443ZM9.00321 14.1032C4.66971 14.1032 1.15264 10.428 1.15264 9.49936C1.15264 8.71571 4.66971 4.89586 9.00321 4.89586C13.3239 4.89586 16.8474 8.71571 16.8474 9.49936C16.8474 10.4283 13.3239 14.1032 9.00321 14.1032ZM9.00321 13.1877C11.0517 13.1877 12.698 11.5083 12.698 9.49936C12.698 7.43803 11.0517 5.81128 9.00321 5.81128C6.94189 5.81128 5.28879 7.43771 5.30196 9.49936C5.30839 11.5083 6.94189 13.1877 9.00321 13.1877ZM9.00321 10.7246C8.31857 10.7246 7.76507 10.1711 7.76507 9.49936C7.76507 8.82114 8.31825 8.27471 9.00321 8.27471C9.68143 8.27471 10.2349 8.82114 10.2349 9.49936C10.2349 10.1711 9.68175 10.7246 9.00321 10.7246Z" fill="#B3B3B3"/>
</svg>
