<svg width="18" height="18" viewBox="0 0 18 18" fill="none" xmlns="http://www.w3.org/2000/svg">
<path d="M5.24978 1C2.79378 1 1 3.65422 1 6.51733C1 7.28622 1.11556 8.02222 1.32 8.72178C1.42015 9.0637 1.53985 9.39733 1.67911 9.72267C5.24978 14 9 17 9 17C9 17 12.7502 14 16.3209 9.72267C16.4601 9.39852 16.5799 9.06489 16.68 8.72178C16.8844 8.02222 17 7.28622 17 6.51733C17 3.65511 15.2062 1 12.7502 1C11.0747 1 9.82489 1.94311 9.04089 3.57956C9.0372 3.58727 9.0314 3.59378 9.02416 3.59834C9.01693 3.60289 9.00855 3.60531 9 3.60531C8.99145 3.60531 8.98307 3.60289 8.97584 3.59834C8.9686 3.59378 8.9628 3.58727 8.95911 3.57956C8.17511 1.944 6.92622 1 5.24978 1Z" fill="#B3B3B3"/>
</svg>
