<svg width="16" height="20" viewBox="0 0 16 20" fill="none" xmlns="http://www.w3.org/2000/svg">
<path d="M1.875 20C1.35937 20 0.918125 19.8141 0.55125 19.4424C0.184375 19.0706 0.000625 18.6231 0 18.1V6.7C0 6.1775 0.18375 5.73037 0.55125 5.3586C0.91875 4.98683 1.36 4.80063 1.875 4.8H3.75C3.75 3.755 4.11719 2.86042 4.85156 2.11625C5.58594 1.37208 6.46875 1 7.5 1C8.53125 1 9.41406 1.37208 10.1484 2.11625C10.8828 2.86042 11.25 3.755 11.25 4.8H13.125C13.6406 4.8 14.0822 4.9862 14.4497 5.3586C14.8172 5.731 15.0006 6.17813 15 6.7V18.1C15 18.6225 14.8166 19.07 14.4497 19.4424C14.0828 19.8147 13.6412 20.0006 13.125 20H1.875ZM5.625 4.8H9.375C9.375 4.2775 9.19156 3.83037 8.82469 3.4586C8.45781 3.08683 8.01625 2.90063 7.5 2.9C6.98375 2.89937 6.5425 3.08557 6.17625 3.4586C5.81 3.83163 5.62625 4.27877 5.625 4.8ZM10.3125 9.55C10.5781 9.55 10.8009 9.4588 10.9809 9.2764C11.1609 9.094 11.2506 8.86853 11.25 8.6V6.7H9.375V8.6C9.375 8.86917 9.465 9.09495 9.645 9.27735C9.825 9.45975 10.0475 9.55063 10.3125 9.55ZM4.6875 9.55C4.95312 9.55 5.17594 9.4588 5.35594 9.2764C5.53594 9.094 5.62562 8.86853 5.625 8.6V6.7H3.75V8.6C3.75 8.86917 3.84 9.09495 4.02 9.27735C4.2 9.45975 4.4225 9.55063 4.6875 9.55Z" fill="#31C0FD"/>
</svg>
