<svg width="20" height="20" viewBox="0 0 20 20" fill="none" xmlns="http://www.w3.org/2000/svg">
<g clip-path="url(#clip0_380_953)">
<path d="M16.4789 15.5959C16.9105 14.9191 17.1557 14.105 17.1557 13.2418C17.1557 10.7896 15.194 8.82786 12.7418 8.82786C10.2896 8.82786 8.32786 10.7896 8.32786 13.2418C8.32786 15.694 10.2896 17.6557 12.7418 17.6557C13.5951 17.6557 14.3995 17.4105 15.0763 16.9887L18.1366 20L19.5 18.6366L16.4789 15.5959ZM12.8031 13.7322C12.1527 13.7322 13.263 14.1921 12.8031 13.7322C12.3432 13.2723 12.8031 14.3826 12.8031 13.7322C12.8031 13.0819 12.3432 14.1921 12.8031 13.7322C13.263 13.2723 12.1527 13.7322 12.8031 13.7322C13.4534 13.7322 12.3432 13.2723 12.8031 13.7322C13.263 14.1921 12.8031 13.0819 12.8031 13.7322C13.263 13.2723 12.8031 14.3826 12.8031 13.7322C13.4534 13.7322 12.3432 14.1921 12.8031 13.7322ZM2.44262 16.6748V8.82786H-0.5L9.30873 0L19.1175 8.82786H17.3323C16.1748 7.62138 14.5466 6.86611 12.7418 6.86611C9.23026 6.86611 6.36611 9.73026 6.36611 13.2418C6.36611 14.5071 6.73884 15.694 7.37641 16.6748H2.44262Z" fill="#A100A4"/>
</g>
<defs>
<clipPath id="clip0_380_953">
<rect width="20" height="20" fill="white"/>
</clipPath>
</defs>
</svg>
