<svg width="22" height="22" viewBox="0 0 22 22" fill="none" xmlns="http://www.w3.org/2000/svg">
<path d="M10.083 1.62354C15.1292 1.6237 19.2363 5.56097 19.2363 10.438C19.2363 12.4908 18.5051 14.3766 17.2852 15.8735L20.1787 17.8882L20.3555 18.0112L20.2598 18.2046L19.8672 18.9956L19.8486 19.0317L19.8203 19.061L19.4277 19.4565L19.2773 19.6069L19.1045 19.4839L15.9297 17.2144C14.3429 18.4854 12.3061 19.2524 10.083 19.2524C5.0367 19.2524 0.928711 15.3151 0.928711 10.438C0.928717 5.56087 5.0367 1.62354 10.083 1.62354Z" fill="#FF6F0F" stroke="#FF6F0F" stroke-width="0.5"/>
<path d="M9.8821 4.86548C9.11268 4.86548 8.37477 5.17113 7.83071 5.71519C7.28665 6.25925 6.981 6.99716 6.981 7.76658C6.981 8.536 7.28665 9.2739 7.83071 9.81796C8.37477 10.362 9.11268 10.6677 9.8821 10.6677C10.6515 10.6677 11.3894 10.362 11.9335 9.81796C12.4775 9.2739 12.7832 8.536 12.7832 7.76658C12.7832 6.99716 12.4775 6.25925 11.9335 5.71519C11.3894 5.17113 10.6515 4.86548 9.8821 4.86548ZM6.26225 11.393C6.07122 11.3921 5.88189 11.429 5.70515 11.5015C5.5284 11.574 5.36773 11.6807 5.23234 11.8155C5.09695 11.9503 4.98952 12.1105 4.91621 12.2869C4.84291 12.4633 4.80517 12.6525 4.80518 12.8435C4.80518 14.0699 5.40933 14.9947 6.35364 15.5974C7.28344 16.1899 8.53671 16.4699 9.8821 16.4699C11.2275 16.4699 12.4808 16.1899 13.4106 15.5974C14.3549 14.9954 14.959 14.0692 14.959 12.8435C14.959 12.4588 14.8062 12.0898 14.5342 11.8178C14.2621 11.5458 13.8932 11.393 13.5085 11.393H6.26225Z" fill="white"/>
</svg>
