<svg width="20" height="20" viewBox="0 0 20 20" fill="none" xmlns="http://www.w3.org/2000/svg">
<path d="M2.35 10.4255C2.6985 10.6698 3.166 10.7878 3.625 10.7878C4.0925 10.7878 4.5515 10.6698 4.9 10.4255C5.427 10.0379 5.75 9.43971 5.75 8.74039C5.75 9.43971 6.0645 10.0379 6.6 10.4255C6.9485 10.6698 7.416 10.7878 7.875 10.7878C8.3425 10.7878 8.8015 10.6698 9.15 10.4255C9.677 10.0379 10 9.43971 10 8.74039C10 9.43971 10.3145 10.0379 10.85 10.4255C11.1985 10.6698 11.666 10.7878 12.1335 10.7878C12.5925 10.7878 13.0515 10.6698 13.4 10.4255C13.927 10.0379 14.25 9.43971 14.25 8.74039C14.25 9.43971 14.5645 10.0379 15.1 10.4255C15.4485 10.6698 15.916 10.7878 16.375 10.7878C16.8425 10.7878 17.3015 10.6698 17.65 10.4255C18.1855 10.0379 18.5 9.43971 18.5 8.74039V7.89784L15.95 2H4.9L1.5 7.89784V8.74039C1.5 9.43971 1.8145 10.0379 2.35 10.4255ZM4.05 18H8.3V13.7873H11.7V18H15.95V12.1022C15.6355 12.06 15.338 11.9168 15.1 11.7399C14.5645 11.3607 14.25 11.1248 14.25 10.4255C14.25 11.1248 13.927 11.3607 13.4 11.7399C13.0515 11.9926 12.5925 12.1022 12.1335 12.1106C11.666 12.1106 11.1985 11.9926 10.85 11.7399C10.3145 11.3607 10 11.1248 10 10.4255C10 11.1248 9.677 11.3607 9.15 11.7399C8.8015 11.9926 8.3425 12.1022 7.875 12.1106C7.416 12.1106 6.9485 11.9926 6.6 11.7399C6.0645 11.3607 5.75 11.1248 5.75 10.4171C5.75 11.1248 5.427 11.3607 4.9 11.7399C4.6535 11.9168 4.3645 12.06 4.05 12.1106V18Z" fill="#00C853" fill-opacity="0.8"/>
</svg>
