<svg width="22" height="20" viewBox="0 0 22 20" fill="none" xmlns="http://www.w3.org/2000/svg">
<mask id="mask0_380_967" style="mask-type:luminance" maskUnits="userSpaceOnUse" x="2" y="2" width="18" height="16">
<path fill-rule="evenodd" clip-rule="evenodd" d="M6.5801 13.1673C6.86487 13.1673 7.13799 13.0541 7.33935 12.8528C7.54072 12.6514 7.65385 12.3783 7.65385 12.0935C7.65385 11.8087 7.54072 11.5356 7.33935 11.3343C7.13799 11.1329 6.86487 11.0198 6.5801 11.0198C6.29532 11.0198 6.02221 11.1329 5.82084 11.3343C5.61947 11.5356 5.50635 11.8087 5.50635 12.0935C5.50635 12.3783 5.61947 12.6514 5.82084 12.8528C6.02221 13.0541 6.29532 13.1673 6.5801 13.1673ZM15.5996 13.1673C15.8844 13.1673 16.1575 13.0541 16.3589 12.8528C16.5602 12.6514 16.6733 12.3783 16.6733 12.0935C16.6733 11.8087 16.5602 11.5356 16.3589 11.3343C16.1575 11.1329 15.8844 11.0198 15.5996 11.0198C15.3148 11.0198 15.0417 11.1329 14.8403 11.3343C14.639 11.5356 14.5258 11.8087 14.5258 12.0935C14.5258 12.3783 14.639 12.6514 14.8403 12.8528C15.0417 13.0541 15.3148 13.1673 15.5996 13.1673Z" fill="white"/>
<path d="M3.7885 15.3145C3.44677 15.3145 3.11903 15.1787 2.87739 14.9371C2.63575 14.6955 2.5 14.3677 2.5 14.026V10.0359C2.49998 9.55715 2.63334 9.08783 2.88513 8.68059C3.13692 8.27336 3.49718 7.94432 3.92551 7.73039L4.21843 7.58436L5.21057 3.32801C5.29859 2.95041 5.51175 2.61367 5.81539 2.37257C6.11904 2.13146 6.49532 2.00015 6.88305 2H15.339C15.7296 1.99998 16.1086 2.13305 16.4134 2.37727C16.7182 2.62149 16.9307 2.96229 17.0158 3.34348L17.9629 7.58436L18.2549 7.73039C18.683 7.94432 19.0431 8.27325 19.2948 8.68031C19.5465 9.08737 19.6799 9.55649 19.68 10.0351V14.026C19.68 14.3677 19.5442 14.6955 19.3026 14.9371C19.061 15.1787 18.7332 15.3145 18.3915 15.3145H17.5338V15.744C17.5338 16.1998 17.3527 16.637 17.0304 16.9593C16.7081 17.2816 16.271 17.4626 15.8151 17.4626C15.3593 17.4626 14.9222 17.2816 14.5999 16.9593C14.2776 16.637 14.0965 16.1998 14.0965 15.744V15.3145H8.0835V15.744C8.0835 16.1996 7.9025 16.6366 7.58031 16.9588C7.25812 17.281 6.82114 17.462 6.3655 17.462C5.90986 17.462 5.47288 17.281 5.15069 16.9588C4.8285 16.6366 4.6475 16.1996 4.6475 15.744V15.3145H3.7885Z" fill="white"/>
<path d="M6.79517 8.87185H15.3852L14.6756 5.67894C14.6332 5.48819 14.5271 5.3176 14.3746 5.19532C14.2222 5.07304 14.0327 5.00638 13.8372 5.00635H8.34308C8.14768 5.00638 7.95812 5.07304 7.8057 5.19532C7.65328 5.3176 7.5471 5.48819 7.5047 5.67894L6.79517 8.87185Z" fill="black"/>
</mask>
<g mask="url(#mask0_380_967)">
<path d="M1.22314 -0.553467H21.6508V19.8742H1.22314V-0.553467Z" fill="#0057FF" fill-opacity="0.8"/>
</g>
</svg>
