<svg width="16" height="20" viewBox="0 0 16 20" fill="none" xmlns="http://www.w3.org/2000/svg">
<path d="M12.5312 1C13.0301 0.999937 13.5104 1.1947 13.875 1.54491C14.2397 1.89513 14.4615 2.3747 14.4956 2.88668L14.5 3.0244V16.9747C14.5001 17.4879 14.3107 17.982 13.9703 18.3571C13.6299 18.7322 13.1637 18.9604 12.666 18.9955L12.5312 19H2.46875C1.96989 19.0001 1.48961 18.8053 1.12497 18.4551C0.760325 18.1049 0.538519 17.6253 0.504375 17.1133L0.5 16.9765V3.0253C0.499939 2.51211 0.689258 2.01803 1.0297 1.64292C1.37014 1.2678 1.83631 1.03963 2.334 1.0045L2.46875 1H12.5312ZM7.717 10.8979H3.78125L3.692 10.9042C3.53426 10.9257 3.38949 11.0054 3.28463 11.1285C3.17977 11.2516 3.12196 11.4098 3.12196 11.5734C3.12196 11.7371 3.17977 11.8952 3.28463 12.0183C3.38949 12.1415 3.53426 12.2212 3.692 12.2427L3.78125 12.2481H7.717L7.80625 12.2427C7.96399 12.2212 8.10876 12.1415 8.21362 12.0183C8.31848 11.8952 8.37629 11.7371 8.37629 11.5734C8.37629 11.4098 8.31848 11.2516 8.21362 11.1285C8.10876 11.0054 7.96399 10.9257 7.80625 10.9042L7.717 10.8979ZM11.2188 8.20018H3.78125L3.692 8.20558C3.53426 8.22708 3.38949 8.30681 3.28463 8.42992C3.17977 8.55303 3.12196 8.71115 3.12196 8.87483C3.12196 9.03852 3.17977 9.19663 3.28463 9.31974C3.38949 9.44285 3.53426 9.52258 3.692 9.54408L3.78125 9.55038H11.2188L11.308 9.54408C11.4657 9.52258 11.6105 9.44285 11.7154 9.31974C11.8202 9.19663 11.878 9.03852 11.878 8.87483C11.878 8.71115 11.8202 8.55303 11.7154 8.42992C11.6105 8.30681 11.4657 8.22708 11.308 8.20558L11.2188 8.20018ZM11.2188 5.50068H3.78125L3.692 5.50698C3.53493 5.52921 3.39099 5.60919 3.2868 5.73213C3.1826 5.85508 3.1252 6.01267 3.1252 6.17578C3.1252 6.33888 3.1826 6.49648 3.2868 6.61942C3.39099 6.74236 3.53493 6.82234 3.692 6.84458L3.78125 6.85088H11.2188L11.308 6.84458C11.4651 6.82234 11.609 6.74236 11.7132 6.61942C11.8174 6.49648 11.8748 6.33888 11.8748 6.17578C11.8748 6.01267 11.8174 5.85508 11.7132 5.73213C11.609 5.60919 11.4651 5.52921 11.308 5.50698L11.2188 5.50068Z" fill="#BB0FFF" fill-opacity="0.8"/>
</svg>
